# xmcd CD database file
#
# Track frame offsets:
#	150
#	42716
#	87757
#	118424
#	148654
#	189342
#	217869
#	252059
#	275135
#	298138
#
# Disc length: 4290 seconds
#
# Revision: 0
# Processed by: cddbd v1.5.2PL0 Copyright (c) Steve Scherf et al.
# Submitted via: CDex 1.70beta2
#
DISCID=9f10c00a
DTITLE=Various Artist - Jazz Roads CD184 - Swing - Lester Young Vol.12 (1956)
DYEAR=2006
DGENRE=Jazz
TTITLE0=The Jazz Giants '56 - I Guess I'll Have To Change My Plan
TTITLE1=The Jazz Giants '56 - I Didn't Know What Time It Was
TTITLE2=The Jazz Giants '56 - Gigantic Blues
TTITLE3=The Jazz Giants '56 - This Year's Kisses
TTITLE4=The Jazz Giants '56 - You Can Depend On Me
TTITLE5=Pres And Teddy - Pres Returns
TTITLE6=Pres And Teddy - Prisoner Of Love
TTITLE7=Pres And Teddy - Taking A Chance On Love
TTITLE8=Pres And Teddy - All Of Me
TTITLE9=Pres And Teddy - Louise
EXTD=YEAR: 2006
EXTT0=
EXTT1=
EXTT2=
EXTT3=
EXTT4=
EXTT5=
EXTT6=
EXTT7=
EXTT8=
EXTT9=
PLAYORDER=
